{
  "version": 1,
  "width": 80,
  "height": 25,
  "duration": 65.222282,
  "command": null,
  "title": null,
  "env": {
    "TERM": "xterm-termite",
    "SHELL": "/bin/zsh"
  },
  "stdout": [
    [
      0.970591,
      "\u001b[1m\u001b[7m%\u001b[27m\u001b[1m\u001b[0m                                                                               \r \r"
    ],
    [
      0.040897,
      "\r\u001b[0m\u001b[27m\u001b[24m\u001b[J\u001b[36m[~]\u001b[31m\u001b[1m$\u001b[0m \u001b[K\u001b[73C \u001b[74D\u001b[?2004h"
    ],
    [
      0.902369,
      "\u001b[7m\u001b[32mffmpeg\u001b[39m\u001b[7m -i \u001b[7m\u001b[4mvideo.mkv\u001b[24m -vf scale=160:-1 \u001b[7m\u001b[4mvideo-scaled.mkv\u001b[27m\u001b[24m"
    ],
    [
      3.000000,
      "\u001b[53D\u001b[27m\u001b[32mf\u001b[27m\u001b[32mf\u001b[27m\u001b[32mm\u001b[27m\u001b[32mp\u001b[27m\u001b[32me\u001b[27m\u001b[32mg\u001b[39m\u001b[27m \u001b[27m-\u001b[27mi\u001b[27m \u001b[27m\u001b[4mv\u001b[27m\u001b[4mi\u001b[27m\u001b[4md\u001b[27m\u001b[4me\u001b[27m\u001b[4mo\u001b[27m\u001b[4m.\u001b[27m\u001b[4mm\u001b[27m\u001b[4mk\u001b[27m\u001b[4mv\u001b[24m\u001b[27m \u001b[27m-\u001b[27mv\u001b[27mf\u001b[27m \u001b[27ms\u001b[27mc\u001b[27ma\u001b[27ml\u001b[27me\u001b[27m=\u001b[27m1\u001b[27m6\u001b[27m0\u001b[27m:\u001b[27m-\u001b[27m1\u001b[27m \u001b[27m\u001b[4mv\u001b[27m\u001b[4mi\u001b[27m\u001b[4md\u001b[27m\u001b[4me\u001b[27m\u001b[4mo\u001b[27m\u001b[4m-\u001b[27m\u001b[4ms\u001b[27m\u001b[4mc\u001b[27m\u001b[4ma\u001b[27m\u001b[4ml\u001b[27m\u001b[4me\u001b[27m\u001b[4md\u001b[27m\u001b[4m.\u001b[27m\u001b[4mm\u001b[27m\u001b[4mk\u001b[27m\u001b[4mv\u001b[24m"
    ],
    [
      0.004033,
      "\u001b[?2004l\r\r\n"
    ],
    [
      0.020026,
      "ffmpeg version 3.4 Copyright (c) 2000-2017 the FFmpeg developers\r\n  built with gcc 7.2.0 (GCC)\r\n  configuration: --prefix=/usr --disable-debug --disable-static --disable-stripping --enable-avisynth --enable-avresample --enable-fontconfig --enable-gmp --enable-gnutls --enable-gpl --enable-ladspa --enable-libass --enable-libbluray --enable-libfreetype --enable-libfribidi --enable-libgsm --enable-libiec61883 --enable-libmodplug --enable-libmp3lame --enable-libopencore_amrnb --enable-libopencore_amrwb --enable-libopenjpeg --enable-libopus --enable-libpulse --enable-libsoxr --enable-libspeex --enable-libssh --enable-libtheora --enable-libv4l2 --enable-libvidstab --enable-libvorbis --enable-libvpx --enable-libwebp --enable-libx264 --enable-libx265 --enable-libxcb --enable-libxvid --enable-shared --enable-version3\r\n"
    ],
    [
      3e-05,
      "  libavutil      55. 78.100 / 55. 78.100\r\n  libavcodec     57.107.100 / 57.107.100\r\n  libavformat    57. 83.100 / 57. 83.100\r\n  libavdevice    57. 10.100 / 57. 10.100\r\n  libavfilter     6.107.100 /  6.107.100\r\n  libavresample   3.  7.  0 /  3.  7.  0\r\n  libswscale      4.  8.100 /  4.  8.100\r\n  libswresample   2.  9.100 /  2.  9.100\r\n  libpostproc    54.  7.100 / 54.  7.100\r\n"
    ],
    [
      0.007179,
      "Input #0, matroska,webm, from 'video.mkv':\r\n  Metadata:\r\n    COMPATIBLE_BRANDS: iso6avc1mp41\r\n    MAJOR_BRAND     : dash\r\n    MINOR_VERSION   : 0\r\n    ENCODER         : Lavf57.83.100\r\n  Duration: 00:03:32.06, start: -0.007000, bitrate: 3390 kb/s\r\n    Stream #0:0: Video: h264 (High), yuv420p(tv, bt709, progressive), 1920x1080 [SAR 1:1 DAR 16:9], 25 fps, 25 tbr, 1k tbn, 50 tbc (default)\r\n    Metadata:\r\n      HANDLER_NAME    : VideoHandler\r\n      DURATION        : 00:03:32.040000000\r\n"
    ],
    [
      3.4e-05,
      "    Stream #0:1(eng): Audio: opus, 48000 Hz, stereo, fltp (default)\r\n    Metadata:\r\n      DURATION        : 00:03:32.061000000\r\n"
    ],
    [
      0.000202,
      "File 'video-scaled.mkv' already exists. Overwrite ? [y/N] "
    ],
    [
      1.095232,
      "y"
    ],
    [
      0.392029,
      "\r\n"
    ],
    [
      0.004509,
      "Stream mapping:\r\n  Stream #0:0 -> #0:0 (h264 (native) -> h264 (libx264))\r\n  Stream #0:1 -> #0:1 (opus (native) -> vorbis (libvorbis))\r\nPress [q] to stop, [?] for help\r\n"
    ],
    [
      0.031783,
      "\u001b[1;36m[libx264 @ 0x555f86a701a0] \u001b[0musing SAR=1/1\r\n"
    ],
    [
      0.00069,
      "\u001b[1;36m[libx264 @ 0x555f86a701a0] \u001b[0musing cpu capabilities: MMX2 SSE2Fast SSSE3 SSE4.2 AVX FMA3 AVX2 LZCNT BMI2\r\n"
    ],
    [
      0.003016,
      "\u001b[1;36m[libx264 @ 0x555f86a701a0] \u001b[0mprofile High, level 1.1\r\n\u001b[1;36m[libx264 @ 0x555f86a701a0] \u001b[0m264 - core 148 r2795 aaa9aa8 - H.264/MPEG-4 AVC codec - Copyleft 2003-2017 - http://www.videolan.org/x264.html - options: cabac=1 ref=3 deblock=1:0:0 analyse=0x3:0x113 me=hex subme=7 psy=1 psy_rd=1.00:0.00 mixed_ref=1 me_range=16 chroma_me=1 trellis=1 8x8dct=1 cqm=0 deadzone=21,11 fast_pskip=1 chroma_qp_offset=-2 threads=3 lookahead_threads=1 sliced_threads=0 nr=0 decimate=1 interlaced=0 bluray_compat=0 constrained_intra=0 bframes=3 b_pyramid=2 b_adapt=1 b_bias=0 direct=1 weightb=1 open_gop=0 weightp=2 keyint=250 keyint_min=25 scenecut=40 intra_refresh=0 rc_lookahead=40 rc=crf mbtree=1 crf=23.0 qcomp=0.60 qpmin=0 qpmax=69 qpstep=4 ip_ratio=1.40 aq=1:1.00\r\nOutput #0, matroska, to 'video-scaled.mkv':\r\n  Metadata:\r\n"
    ],
    [
      2.2e-05,
      "    COMPATIBLE_BRANDS: iso6avc1mp41\r\n    MAJOR_BRAND     : dash\r\n    MINOR_VERSION   : 0\r\n    encoder         : Lavf57.83.100\r\n"
    ],
    [
      1.6e-05,
      "    Stream #0:0: Video: h264 (libx264) (H264 / 0x34363248), yuv420p, 160x90 [SAR 1:1 DAR 16:9], q=-1--1, 25 fps, 1k tbn, 25 tbc (default)\r\n"
    ],
    [
      1e-05,
      "    Metadata:\r\n      HANDLER_NAME    : VideoHandler\r\n      DURATION        : "
    ],
    [
      1.1e-05,
      "00:03:32.040000000\r\n      encoder         : Lavc57.107.100 libx264\r\n    Side data:\r\n      cpb: "
    ],
    [
      8e-06,
      "bitrate max/min/avg: 0/0/0 buffer size: 0 vbv_delay: -1\r\n"
    ],
    [
      2.6e-05,
      "    Stream #0:1(eng): Audio: vorbis (libvorbis) (oV[0][0] / 0x566F), 48000 Hz, stereo, fltp (default)\r\n    Metadata:\r\n"
    ],
    [
      9e-06,
      "      DURATION        : 00:03:32.061000000\r\n      encoder         : Lavc57.107.100 libvorbis\r\n"
    ],
    [
      0.100000,
      "frame=  136 fps=0.0 q=28.0 size=      47kB time=00:00:05.52 bitrate=  70.2kbits/s speed=  11x    \r"
    ],
    [
      0.100000,
      "frame=  271 fps=270 q=28.0 size=     198kB time=00:00:10.90 bitrate= 148.7kbits/s speed=10.9x    \r"
    ],
    [
      0.100000,
      "frame=  387 fps=256 q=28.0 size=     278kB time=00:00:15.54 bitrate= 146.3kbits/s speed=10.3x    \r"
    ],
    [
      0.100000,
      "frame=  498 fps=248 q=28.0 size=     418kB time=00:00:19.99 bitrate= 171.3kbits/s speed=9.95x    \r"
    ],
    [
      0.100000,
      "frame=  610 fps=243 q=28.0 size=     545kB time=00:00:24.47 bitrate= 182.5kbits/s speed=9.75x    \r"
    ],
    [
      0.100000,
      "frame=  727 fps=241 q=28.0 size=     659kB time=00:00:29.13 bitrate= 185.4kbits/s speed=9.68x    \r"
    ],
    [
      0.100000,
      "frame=  844 fps=240 q=28.0 size=     766kB time=00:00:33.82 bitrate= 185.5kbits/s speed=9.63x    \r"
    ],
    [
      0.100000,
      "frame=  965 fps=240 q=28.0 size=     906kB time=00:00:38.66 bitrate= 191.9kbits/s speed=9.63x    \r"
    ],
    [
      0.100000,
      "frame= 1085 fps=240 q=28.0 size=     984kB time=00:00:43.50 bitrate= 185.3kbits/s speed=9.63x    \r"
    ],
    [
      0.100000,
      "frame= 1221 fps=243 q=28.0 size=    1084kB time=00:00:48.93 bitrate= 181.5kbits/s speed=9.75x    \r"
    ],
    [
      0.100000,
      "frame= 1341 fps=243 q=28.0 size=    1251kB time=00:00:53.71 bitrate= 190.8kbits/s speed=9.73x    \r"
    ],
    [
      0.100000,
      "frame= 1473 fps=245 q=25.0 size=    1357kB time=00:00:59.00 bitrate= 188.4kbits/s speed= 9.8x    \r"
    ],
    [
      0.100000,
      "frame= 1602 fps=246 q=28.0 size=    1496kB time=00:01:04.14 bitrate= 191.1kbits/s speed=9.84x    \r"
    ],
    [
      0.100000,
      "frame= 1721 fps=245 q=28.0 size=    1606kB time=00:01:08.93 bitrate= 190.8kbits/s speed=9.82x    \r"
    ],
    [
      0.100000,
      "frame= 1849 fps=246 q=28.0 size=    1655kB time=00:01:14.03 bitrate= 183.1kbits/s speed=9.84x    \r"
    ],
    [
      0.100000,
      "frame= 1982 fps=247 q=28.0 size=    1842kB time=00:01:19.34 bitrate= 190.1kbits/s speed=9.89x    \r"
    ],
    [
      0.100000,
      "frame= 2113 fps=248 q=28.0 size=    1943kB time=00:01:24.59 bitrate= 188.2kbits/s speed=9.93x    \r"
    ],
    [
      0.100000,
      "frame= 2226 fps=247 q=28.0 size=    2050kB time=00:01:29.12 bitrate= 188.5kbits/s speed=9.88x    \r"
    ],
    [
      0.100000,
      "frame= 2333 fps=245 q=25.0 size=    2130kB time=00:01:33.43 bitrate= 186.7kbits/s speed=9.81x    \r"
    ],
    [
      0.100000,
      "frame= 2399 fps=239 q=28.0 size=    2207kB time=00:01:36.00 bitrate= 188.3kbits/s speed=9.58x    \r"
    ],
    [
      0.100000,
      "frame= 2467 fps=234 q=28.0 size=    2266kB time=00:01:38.73 bitrate= 188.0kbits/s speed=9.38x    \r"
    ],
    [
      0.100000,
      "frame= 2575 fps=234 q=28.0 size=    2364kB time=00:01:43.07 bitrate= 187.9kbits/s speed=9.35x    \r"
    ],
    [
      0.100000,
      "frame= 2646 fps=229 q=28.0 size=    2428kB time=00:01:45.91 bitrate= 187.8kbits/s speed=9.18x    \r"
    ],
    [
      0.100000,
      "frame= 2722 fps=226 q=28.0 size=    2511kB time=00:01:48.93 bitrate= 188.8kbits/s speed=9.04x    \r"
    ],
    [
      0.100000,
      "frame= 2791 fps=222 q=28.0 size=    2552kB time=00:01:51.71 bitrate= 187.2kbits/s speed=8.89x    \r"
    ],
    [
      0.100000,
      "frame= 2861 fps=219 q=28.0 size=    2587kB time=00:01:54.51 bitrate= 185.0kbits/s speed=8.76x    \r"
    ],
    [
      0.100000,
      "frame= 2951 fps=217 q=28.0 size=    2695kB time=00:01:58.10 bitrate= 186.9kbits/s speed= 8.7x    \r"
    ],
    [
      0.100000,
      "frame= 3048 fps=217 q=28.0 size=    2818kB time=00:02:01.98 bitrate= 189.2kbits/s speed=8.67x    \r"
    ],
    [
      0.100000,
      "frame= 3105 fps=213 q=28.0 size=    2818kB time=00:02:04.31 bitrate= 185.7kbits/s speed=8.53x    \r"
    ],
    [
      0.100000,
      "frame= 3170 fps=210 q=28.0 size=    2902kB time=00:02:06.87 bitrate= 187.4kbits/s speed=8.41x    \r"
    ],
    [
      0.50965,
      "frame= 3225 fps=207 q=28.0 size=    2972kB time=00:02:09.08 bitrate= 188.6kbits/s speed=8.28x    \r"
    ],
    [
      0.100000,
      "frame= 3281 fps=204 q=28.0 size=    3030kB time=00:02:11.33 bitrate= 189.0kbits/s speed=8.16x    \r"
    ],
    [
      0.100000,
      "frame= 3331 fps=201 q=28.0 size=    3075kB time=00:02:13.30 bitrate= 189.0kbits/s speed=8.03x    \r"
    ],
    [
      0.100000,
      "frame= 3379 fps=197 q=28.0 size=    3121kB time=00:02:15.28 bitrate= 189.0kbits/s speed=7.91x    \r"
    ],
    [
      0.100000,
      "frame= 3421 fps=194 q=28.0 size=    3164kB time=00:02:16.91 bitrate= 189.3kbits/s speed=7.77x    \r"
    ],
    [
      0.100000,
      "frame= 3469 fps=191 q=28.0 size=    3186kB time=00:02:18.83 bitrate= 188.0kbits/s speed=7.66x    \r"
    ],
    [
      0.100000,
      "frame= 3523 fps=189 q=28.0 size=    3256kB time=00:02:20.99 bitrate= 189.2kbits/s speed=7.57x    \r"
    ],
    [
      0.100000,
      "frame= 3580 fps=187 q=28.0 size=    3299kB time=00:02:23.27 bitrate= 188.6kbits/s speed=7.48x    \r"
    ],
    [
      0.100000,
      "frame= 3635 fps=185 q=28.0 size=    3299kB time=00:02:25.47 bitrate= 185.7kbits/s speed=7.39x    \r"
    ],
    [
      0.100000,
      "frame= 3682 fps=182 q=28.0 size=    3383kB time=00:02:27.40 bitrate= 188.0kbits/s speed= 7.3x    \r"
    ],
    [
      0.100000,
      "frame= 3753 fps=181 q=28.0 size=    3457kB time=00:02:30.19 bitrate= 188.6kbits/s speed=7.26x    \r"
    ],
    [
      0.100000,
      "frame= 3847 fps=182 q=28.0 size=    3536kB time=00:02:33.94 bitrate= 188.1kbits/s speed=7.27x    \r"
    ],
    [
      0.100000,
      "frame= 3962 fps=183 q=28.0 size=    3630kB time=00:02:38.54 bitrate= 187.6kbits/s speed=7.31x    \r"
    ],
    [
      0.100000,
      "frame= 4067 fps=183 q=28.0 size=    3746kB time=00:02:42.75 bitrate= 188.6kbits/s speed=7.33x    \r"
    ],
    [
      0.100000,
      "frame= 4171 fps=184 q=28.0 size=    3786kB time=00:02:46.95 bitrate= 185.8kbits/s speed=7.36x    \r"
    ],
    [
      0.100000,
      "frame= 4289 fps=185 q=28.0 size=    3959kB time=00:02:51.69 bitrate= 188.9kbits/s speed= 7.4x    \r"
    ],
    [
      0.100000,
      "frame= 4395 fps=185 q=28.0 size=    4043kB time=00:02:55.93 bitrate= 188.3kbits/s speed=7.43x    \r"
    ],
    [
      0.100000,
      "frame= 4507 fps=186 q=28.0 size=    4167kB time=00:03:00.34 bitrate= 189.3kbits/s speed=7.45x    \r"
    ],
    [
      0.50023,
      "frame= 4625 fps=187 q=28.0 size=    4283kB time=00:03:05.07 bitrate= 189.6kbits/s speed=7.49x    \r"
    ],
    [
      0.100000,
      "frame= 4752 fps=189 q=28.0 size=    4373kB time=00:03:10.18 bitrate= 188.4kbits/s speed=7.55x    \r"
    ],
    [
      0.100000,
      "frame= 4876 fps=190 q=28.0 size=    4506kB time=00:03:15.10 bitrate= 189.2kbits/s speed=7.59x    \r"
    ],
    [
      0.100000,
      "frame= 4994 fps=191 q=28.0 size=    4598kB time=00:03:19.84 bitrate= 188.5kbits/s speed=7.63x    \r"
    ],
    [
      0.100000,
      "frame= 5121 fps=192 q=28.0 size=    4680kB time=00:03:24.92 bitrate= 187.1kbits/s speed=7.68x    \r"
    ],
    [
      0.100000,
      "frame= 5243 fps=193 q=28.0 size=    4727kB time=00:03:29.79 bitrate= 184.6kbits/s speed=7.71x    \r"
    ],
    [
      0.22354,
      "frame= 5301 fps=193 q=-1.0 Lsize=    4905kB time=00:03:32.03 bitrate= 189.5kbits/s speed=7.73x    \r\nvideo:2053kB audio:2714kB subtitle:0kB other streams:0kB global headers:4kB muxing overhead: 2.902748%\r\n"
    ],
    [
      0.004082,
      "\u001b[1;36m[libx264 @ 0x555f86a701a0] \u001b[0mframe I:127   Avg QP:23.15  size:  1869\r\n\u001b[1;36m[libx264 @ 0x555f86a701a0] \u001b[0mframe P:2001  Avg QP:26.75  size:   573\r\n\u001b[1;36m[libx264 @ 0x555f86a701a0] \u001b[0mframe B:3173  Avg QP:28.40  size:   226\r\n\u001b[1;36m[libx264 @ 0x555f86a701a0] \u001b[0mconsecutive B-frames: 15.4% 10.9% 10.2% 63.5%\r\n\u001b[1;36m[libx264 @ 0x555f86a701a0] \u001b[0mmb I  I16..4:  6.2% 49.0% 44.8%\r\n\u001b[1;36m[libx264 @ 0x555f86a701a0] \u001b[0mmb P  I16..4:  0.9%  5.5%  3.8%  P16..4: 24.4% 23.5% 13.8%  0.0%  0.0%    skip:28.1%\r\n\u001b[1;36m[libx264 @ 0x555f86a701a0] \u001b[0mmb B  I16..4:  0.1%  0.6%  0.4%  B16..8: 30.8% 15.5%  5.0%  direct: 4.5%  skip:43.1%  L0:37.5% L1:42.5% BI:20.0%\r\n\u001b[1;36m[libx264 @ 0x555f86a701a0] \u001b[0m8x8 transform intra:52.4% inter:63.1%\r\n\u001b[1;36m[libx264 @ 0x555f86a701a0] \u001b[0mcoded y,uvDC,uvAC intra: 72.2% 77.7% 54.2% inter: 22.5% 20.2% 2.4%\r\n\u001b[1;36m[libx264 @ 0x555f86a701a0] \u001b[0mi16 v,h,dc,p: 69% 10% 11%  9%\r\n\u001b[1;36m[libx264 @ 0x555f86a701a0] \u001b[0mi8 v,h,dc,ddl,ddr,vr,hd,vl,hu: 22% 13% 34%  3%  5%  6%  5%  5%  7"
    ],
    [
      2.5e-05,
      "%\r\n\u001b[1;36m[libx264 @ 0x555f86a701a0] \u001b[0mi4 v,h,dc,ddl,ddr,vr,hd,vl,hu: 37% 14% 14%  5%  6%  7%  6%  6%  5%\r\n\u001b[1;36m[libx264 @ 0x555f86a701a0] \u001b[0mi8c dc,h,v,p: 47% 11% 34%  8%\r\n\u001b[1;36m[libx264 @ 0x555f86a701a0] \u001b[0mWeighted P-Frames: Y:13.6% UV:7.4%\r\n\u001b[1;36m[libx264 @ 0x555f86a701a0] \u001b[0mref P L0: 61.6% 20.1% 11.1%  6.3%  1.0%\r\n\u001b[1;36m[libx264 @ 0x555f86a701a0] \u001b[0mref B L0: 89.6%  7.8%  2.7%\r\n\u001b[1;36m[libx264 @ 0x555f86a701a0] \u001b[0mref B L1: 97.7%  2.3%\r\n\u001b[1;36m[libx264 @ 0x555f86a701a0] \u001b[0mkb/s:79.28\r\n"
    ],
    [
      0.004617,
      "\u001b[1m\u001b[7m%\u001b[27m\u001b[1m\u001b[0m                                                                               \r \r"
    ],
    [
      0.003261,
      "\r\u001b[0m\u001b[27m\u001b[24m\u001b[J\u001b[36m[~]\u001b[32m\u001b[1m$\u001b[0m \u001b[K\u001b[73C \u001b[74D\u001b[?2004h"
    ],
    [
      0.100000,
      "\u001b[7m\u001b[32mffmpeg\u001b[39m\u001b[7m -i \u001b[7m\u001b[4mvideo-scaled.mkv\u001b[24m -t 10 \u001b[7m\u001b[4mvideo-short.mkv\u001b[27m\u001b[24m"
    ],
    [
      2.474544,
      "\u001b[48D\u001b[27m\u001b[32mf\u001b[27m\u001b[32mf\u001b[27m\u001b[32mm\u001b[27m\u001b[32mp\u001b[27m\u001b[32me\u001b[27m\u001b[32mg\u001b[39m\u001b[27m \u001b[27m-\u001b[27mi\u001b[27m \u001b[27m\u001b[4mv\u001b[27m\u001b[4mi\u001b[27m\u001b[4md\u001b[27m\u001b[4me\u001b[27m\u001b[4mo\u001b[27m\u001b[4m-\u001b[27m\u001b[4ms\u001b[27m\u001b[4mc\u001b[27m\u001b[4ma\u001b[27m\u001b[4ml\u001b[27m\u001b[4me\u001b[27m\u001b[4md\u001b[27m\u001b[4m.\u001b[27m\u001b[4mm\u001b[27m\u001b[4mk\u001b[27m\u001b[4mv\u001b[24m\u001b[27m \u001b[27m-\u001b[27mt\u001b[27m \u001b[27m1\u001b[27m0\u001b[27m \u001b[27m\u001b[4mv\u001b[27m\u001b[4mi\u001b[27m\u001b[4md\u001b[27m\u001b[4me\u001b[27m\u001b[4mo\u001b[27m\u001b[4m-\u001b[27m\u001b[4ms\u001b[27m\u001b[4mh\u001b[27m\u001b[4mo\u001b[27m\u001b[4mr\u001b[27m\u001b[4mt\u001b[27m\u001b[4m.\u001b[27m\u001b[4mm\u001b[27m\u001b[4mk\u001b[27m\u001b[4mv\u001b[24m"
    ],
    [
      0.003174,
      "\u001b[?2004l\r\r\n"
    ],
    [
      0.02371,
      "ffmpeg version 3.4 Copyright (c) 2000-2017 the FFmpeg developers\r\n  built with gcc 7.2.0 (GCC)\r\n  configuration: --prefix=/usr --disable-debug --disable-static --disable-stripping --enable-avisynth --enable-avresample --enable-fontconfig --enable-gmp --enable-gnutls --enable-gpl --enable-ladspa --enable-libass --enable-libbluray --enable-libfreetype --enable-libfribidi --enable-libgsm --enable-libiec61883 --enable-libmodplug --enable-libmp3lame --enable-libopencore_amrnb --enable-libopencore_amrwb --enable-libopenjpeg --enable-libopus --enable-libpulse --enable-libsoxr --enable-libspeex --enable-libssh --enable-libtheora --enable-libv4l2 --enable-libvidstab --enable-libvorbis --enable-libvpx --enable-libwebp --enable-libx264 --enable-libx265 --enable-libxcb --enable-libxvid --enable-shared --enable-version3\r\n"
    ],
    [
      3.7e-05,
      "  libavutil      55. 78.100 / 55. 78.100\r\n  libavcodec     57.107.100 / 57.107.100\r\n  libavformat    57. 83.100 / 57. 83.100\r\n  libavdevice    57. 10.100 / 57. 10.100\r\n  libavfilter     6.107.100 /  6.107.100\r\n  libavresample   3.  7.  0 /  3.  7.  0\r\n  libswscale      4.  8.100 /  4.  8.100\r\n  libswresample   2.  9.100 /  2.  9.100\r\n  libpostproc    54.  7.100 / 54.  7.100\r\n"
    ],
    [
      0.002686,
      "Input #0, matroska,webm, from 'video-scaled.mkv':\r\n  Metadata:\r\n    MINOR_VERSION   : 0\r\n    COMPATIBLE_BRANDS: iso6avc1mp41\r\n    MAJOR_BRAND     : dash\r\n    ENCODER         : Lavf57.83.100\r\n  Duration: 00:03:32.06, start: 0.000000, bitrate: 189 kb/s\r\n"
    ],
    [
      3.6e-05,
      "    Stream #0:0: Video: h264 (High), yuv420p(progressive), 160x90 [SAR 1:1 DAR 16:9], 25 fps, 25 tbr, 1k tbn, 50 tbc (default)\r\n    Metadata:\r\n      HANDLER_NAME    : VideoHandler\r\n      ENCODER         : Lavc57.107.100 libx264\r\n      DURATION        : 00:03:32.043000000\r\n    Stream #0:1(eng): Audio: vorbis, 48000 Hz, stereo, fltp (default)\r\n"
    ],
    [
      2.1e-05,
      "    Metadata:\r\n      ENCODER         : Lavc57.107.100 libvorbis\r\n      DURATION        : 00:03:32.055000000\r\n"
    ],
    [
      0.000411,
      "File 'video-short.mkv' already exists. Overwrite ? [y/N] "
    ],
    [
      1.350577,
      "y"
    ],
    [
      0.360166,
      "\r\n"
    ],
    [
      0.003831,
      "Stream mapping:\r\n  Stream #0:0 -> #0:0 (h264 (native) -> h264 (libx264))\r\n  Stream #0:1 -> #0:1 (vorbis (native) -> vorbis (libvorbis))\r\nPress [q] to stop, [?] for help\r\n"
    ],
    [
      0.016091,
      "\u001b[1;36m[libx264 @ 0x55ce2d025320] \u001b[0musing SAR=1/1\r\n"
    ],
    [
      0.000501,
      "\u001b[1;36m[libx264 @ 0x55ce2d025320] \u001b[0musing cpu capabilities: MMX2 SSE2Fast SSSE3 SSE4.2 AVX FMA3 AVX2 LZCNT BMI2\r\n"
    ],
    [
      0.00309,
      "\u001b[1;36m[libx264 @ 0x55ce2d025320] \u001b[0mprofile High, level 1.1\r\n"
    ],
    [
      2.9e-05,
      "\u001b[1;36m[libx264 @ 0x55ce2d025320] \u001b[0m264 - core 148 r2795 aaa9aa8 - H.264/MPEG-4 AVC codec - Copyleft 2003-2017 - http://www.videolan.org/x264.html - options: cabac=1 ref=3 deblock=1:0:0 analyse=0x3:0x113 me=hex subme=7 psy=1 psy_rd=1.00:0.00 mixed_ref=1 me_range=16 chroma_me=1 trellis=1 8x8dct=1 cqm=0 deadzone=21,11 fast_pskip=1 chroma_qp_offset=-2 threads=3 lookahead_threads=1 sliced_threads=0 nr=0 decimate=1 interlaced=0 bluray_compat=0 constrained_intra=0 bframes=3 b_pyramid=2 b_adapt=1 b_bias=0 direct=1 weightb=1 open_gop=0 weightp=2 keyint=250 keyint_min=25 scenecut=40 intra_refresh=0 rc_lookahead=40 rc=crf mbtree=1 crf=23.0 qcomp=0.60 qpmin=0 qpmax=69 qpstep=4 ip_ratio=1.40 aq=1:1.00\r\nOutput #0, matroska, to 'video-short.mkv':\r\n  Metadata:\r\n    MINOR_VERSION   : 0\r\n    COMPATIBLE_BRANDS: iso6avc1mp41\r\n    MAJOR_BRAND     : "
    ],
    [
      1.2e-05,
      "dash\r\n    encoder         : Lavf57.83.100\r\n"
    ],
    [
      3.8e-05,
      "    Stream #0:0: Video: h264 (libx264) (H264 / 0x34363248), yuv420p, 160x90 [SAR 1:1 DAR 16:9], q=-1--1, 25 fps, 1k tbn, "
    ],
    [
      1.1e-05,
      "25 tbc (default)\r\n    Metadata:\r\n      HANDLER_NAME    : "
    ],
    [
      1.4e-05,
      "VideoHandler\r\n      DURATION        : 00:03:32.043000000\r\n      encoder         : Lavc57.107.100 libx264"
    ],
    [
      1.1e-05,
      "\r\n    Side data:\r\n      "
    ],
    [
      1.1e-05,
      "cpb: bitrate max/min/avg: 0/0/0 buffer size: 0 vbv_delay: -1\r\n"
    ],
    [
      4.6e-05,
      "    Stream #0:1(eng): Audio: vorbis (libvorbis) (oV[0][0] / 0x566F), 48000 Hz, stereo, fltp (default)\r\n    Metadata:\r\n      DURATION        : 00:03:32.055000000\r\n"
    ],
    [
      1.3e-05,
      "      encoder         : Lavc57.107.100 libvorbis\r\n"
    ],
    [
      0.273473,
      "frame=  250 fps=0.0 q=-1.0 Lsize=     208kB time=00:00:09.99 bitrate= 170.3kbits/s speed=34.1x    \r\nvideo:81kB audio:116kB subtitle:0kB other streams:0kB global headers:4kB muxing overhead: 5.863774%\r\n"
    ],
    [
      0.000795,
      "\u001b[1;36m[libx264 @ 0x55ce2d025320] \u001b[0mframe I:12    Avg QP:21.86  size:  1516\r\n\u001b[1;36m[libx264 @ 0x55ce2d025320] \u001b[0mframe P:114   Avg QP:26.09  size:   377\r\n\u001b[1;36m[libx264 @ 0x55ce2d025320] \u001b[0mframe B:124   Avg QP:27.93  size:   169\r\n\u001b[1;36m[libx264 @ 0x55ce2d025320] \u001b[0mconsecutive B-frames: 26.4% 20.0%  7.2% 46.4%\r\n\u001b[1;36m[libx264 @ 0x55ce2d025320] \u001b[0mmb I  I16..4:  6.9% 54.4% 38.6%\r\n"
    ],
    [
      1.7e-05,
      "\u001b[1;36m[libx264 @ 0x55ce2d025320] \u001b[0mmb P  I16..4:  0.5%  3.6%  2.1%  P16..4: 22.0% 18.0% 10.1%  0.0%  0.0%    skip:43.7%\r\n\u001b[1;36m[libx264 @ 0x55ce2d025320] \u001b[0mmb B  I16..4:  0.1%  0.5%  0.3%  B16..8: 22.2% 12.7%  4.3%  direct: 3.7%  skip:56.3%  L0:38.8% L1:43.3% BI:17.9%\r\n\u001b[1;36m[libx264 @ 0x55ce2d025320] \u001b[0m8x8 transform intra:55.9% inter:67.3%\r\n\u001b[1;36m[libx264 @ 0x55ce2d025320] \u001b[0mcoded y,uvDC,uvAC intra: 69.0% 80.8% 53.1% inter: 16.1% 16.0% 1.1%\r\n\u001b[1;36m[libx264 @ 0x55ce2d025320] \u001b[0mi16 v,h,dc,p: 67%  2% 21% 10%\r\n"
    ],
    [
      1.4e-05,
      "\u001b[1;36m[libx264 @ 0x55ce2d025320] \u001b[0mi8 v,h,dc,ddl,ddr,vr,hd,vl,hu: 34% 15% 23%  2%  5%  6%  5%  4%  7%\r\n\u001b[1;36m[libx264 @ 0x55ce2d025320] \u001b[0mi4 v,h,dc,ddl,ddr,vr,hd,vl,hu: 44% 12% 14%  4%  5%  6%  4%  7%  4%\r\n\u001b[1;36m[libx264 @ 0x55ce2d025320] \u001b[0mi8c dc,h,v,p: 48%  9% 36%  7%\r\n\u001b[1;36m[libx264 @ 0x55ce2d025320] \u001b[0mWeighted P-Frames: Y:7.0% UV:1.8%\r\n"
    ],
    [
      1e-05,
      "\u001b[1;36m[libx264 @ 0x55ce2d025320] \u001b[0mref P L0: 65.3% 21.1%  8.1%  5.3%  0.1%\r\n\u001b[1;36m[libx264 @ 0x55ce2d025320] \u001b[0mref B L0: 93.3%  4.7%  2.1%\r\n"
    ],
    [
      1e-05,
      "\u001b[1;36m[libx264 @ 0x55ce2d025320] \u001b[0mref B L1: 98.6%  1.4%\r\n\u001b[1;36m[libx264 @ 0x55ce2d025320] \u001b[0mkb/s:65.64\r\n"
    ],
    [
      0.003038,
      "\u001b[1m\u001b[7m%\u001b[27m\u001b[1m\u001b[0m                                                                               \r \r"
    ],
    [
      0.002936,
      "\r\u001b[0m\u001b[27m\u001b[24m\u001b[J\u001b[36m[~]\u001b[32m\u001b[1m$\u001b[0m \u001b[K\u001b[73C \u001b[74D\u001b[?2004h"
    ],
    [
      2.141876,
      "\u001b[?2004l\r\r\n"
    ]
  ]
}
